<?xml version="1.0" encoding="UTF-8"?>
<svg id="Laag_1" data-name="Laag 1" xmlns="http://www.w3.org/2000/svg" xmlns:xlink="http://www.w3.org/1999/xlink" viewBox="0 0 326.56 171.33">
  <defs>
    <style>
      .cls-1 {
        fill: #cf649a;
      }

      .cls-1, .cls-2, .cls-3, .cls-4, .cls-5 {
        stroke-width: 0px;
      }

      .cls-2 {
        fill: url(#Naamloos_verloop_2-2);
      }

      .cls-3 {
        fill: url(#Naamloos_verloop_2);
      }

      .cls-4 {
        fill: #75cbed;
      }

      .cls-5 {
        fill: #664d9a;
      }
    </style>
    <linearGradient id="Naamloos_verloop_2" data-name="Naamloos verloop 2" x1="-280.21" y1="860.21" x2="-277.11" y2="838.93" gradientTransform="translate(552.71 1647.01) scale(1.79 -1.79)" gradientUnits="userSpaceOnUse">
      <stop offset="0" stop-color="#ffeb85"/>
      <stop offset=".08" stop-color="#ffdc37"/>
      <stop offset="1" stop-color="#f7a715"/>
    </linearGradient>
    <linearGradient id="Naamloos_verloop_2-2" data-name="Naamloos verloop 2" x1="17.68" y1="55.09" x2="89.84" y2="55.09" gradientTransform="matrix(1,0,0,1,0,0)" xlink:href="#Naamloos_verloop_2"/>
  </defs>
  <g id="SVGRepo_iconCarrier" data-name="SVGRepo iconCarrier">
    <path class="cls-3" d="M62.82,110.53l-18.21,3.57c-.3.06-.52.31-.54.62l-1.12,18.92c-.03.45.38.79.82.69l5.07-1.17c.47-.11.9.31.81.79l-1.51,7.37c-.1.5.36.92.85.77l3.13-.95c.49-.15.95.28.85.78l-2.39,11.58c-.15.72.81,1.12,1.22.5l.27-.41,14.84-29.61c.25-.5-.18-1.06-.72-.96l-5.22,1.01c-.49.09-.91-.36-.77-.84l3.41-11.81c.14-.48-.28-.94-.77-.84h0Z"/>
  </g>
  <g>
    <path class="cls-5" d="M286.48,140.97c1.68-.17,2.95-1.62,2.89-3.36s-1.5-3.12-3.24-3.12h-.12c-1.79.06-3.18,1.56-3.12,3.36.06.87.4,1.62.93,2.14-1.97,3.88-4.97,6.71-9.49,9.08-3.07,1.62-6.25,2.2-9.43,1.79-2.6-.35-4.63-1.5-5.9-3.41-1.85-2.83-2.02-5.9-.46-8.97,1.1-2.2,2.83-3.82,3.93-4.63-.23-.75-.58-2.02-.75-2.95-8.39,6.07-7.52,14.29-4.97,18.16,1.91,2.89,5.78,4.69,10.07,4.69,1.16,0,2.31-.12,3.47-.4,7.4-1.45,13.02-5.84,16.2-12.38Z"/>
    <path class="cls-5" d="M296.67,133.8c-4.4-5.15-10.87-7.98-18.28-7.98h-.93c-.52-1.04-1.62-1.74-2.83-1.74h-.12c-1.79.06-3.18,1.56-3.12,3.36.06,1.74,1.5,3.12,3.24,3.12h.12c1.27-.06,2.37-.87,2.83-1.97h1.04c4.4,0,8.56,1.27,12.32,3.76,2.89,1.91,4.97,4.4,6.13,7.4.98,2.43.93,4.8-.12,6.83-1.62,3.07-4.34,4.74-7.92,4.74-2.31,0-4.51-.69-5.67-1.21-.64.58-1.79,1.5-2.6,2.08,2.49,1.16,5.03,1.79,7.46,1.79,5.55,0,9.66-3.07,11.22-6.13,1.68-3.36,1.56-9.14-2.78-14.06Z"/>
    <path class="cls-5" d="M267.28,141.96c.06,1.74,1.5,3.12,3.24,3.12h.12c1.79-.06,3.18-1.56,3.12-3.36-.06-1.74-1.5-3.12-3.24-3.12h-.12c-.12,0-.29,0-.4.06-2.37-3.93-3.36-8.21-3.01-12.84.23-3.47,1.39-6.48,3.41-8.97,1.68-2.14,4.92-3.18,7.11-3.24,6.13-.12,8.73,7.52,8.91,10.59.75.17,2.02.58,2.89.87-.69-9.37-6.48-14.23-12.03-14.23-5.21,0-10.01,3.76-11.92,9.31-2.66,7.4-.93,14.52,2.31,20.13-.29.4-.46,1.04-.4,1.68Z"/>
  </g>
  <path class="cls-1" d="M207.57,139.24c-3.27-3.48-9.31-5.95-9.06-10.63.09-1.7.69-6.19,11.6-11.63,8.94-4.45,16.1-3.23,17.35-.51,1.77,3.88-3.83,11.1-13.12,12.14-3.54.4-5.4-.97-5.87-1.48-.49-.54-.56-.56-.74-.46-.3.16-.11.64,0,.93.27.72,1.42,2,3.36,2.64,1.7.56,5.86.87,10.88-1.07,5.63-2.18,10.03-8.23,8.74-13.29-1.31-5.15-9.86-6.84-17.93-3.97-4.81,1.71-10.02,4.39-13.76,7.89-4.45,4.16-5.16,7.79-4.87,9.3,1.04,5.38,8.45,8.89,11.42,11.48-.15.08-.29.16-.41.23-1.48.73-7.14,3.69-8.55,6.82-1.6,3.54.25,6.09,1.48,6.43,3.81,1.06,7.72-.85,9.83-3.99,2.1-3.14,1.85-7.22.88-9.08,0,0-.68-1.14-1.23-1.72ZM205.22,148.88c-1.68,1.84-4.04,2.54-5.05,1.94-1.09-.63-.66-3.34,1.4-5.29,1.26-1.19,2.89-2.28,3.96-2.96.24-.15.61-.37,1.04-.63.07-.05.11-.07.11-.07.08-.05.17-.1.26-.16.77,2.79.03,5.23-1.74,7.16h0Z"/>
  <g>
    <path class="cls-2" d="M62.34,92.62h-16.36L17.68,17.57h19.49l17.4,53.82,16.36-53.82h18.91l-27.49,75.05Z"/>
    <path class="cls-4" d="M147.13,92.62l-21.81-30.04h-1.04v30.04h-17.63V17.57h30.39c11.95,0,26.1,3.71,26.1,22.5,0,9.63-4.18,19.02-17.17,21.92l22.85,30.62h-21.69ZM137.62,31.14h-13.34v17.86h13.46c4.64,0,7.54-3.71,7.54-8.93s-2.09-8.93-7.66-8.93Z"/>
    <path class="cls-1" d="M204.55,94.94c-6.5,0-17.28-1.97-23.66-3.71l5.34-14.73c5.57,2.09,12.3,4.87,18.44,4.87,9.63,0,15.43-1.04,15.43-8,0-14.5-39.21-9.51-39.21-36.31,0-15.2,16.24-21.11,30.04-21.11,5.1,0,14.85,1.28,21,3.36l-5.34,14.73c-4.29-1.86-8.58-4.52-15.78-4.52-11.02,0-12.06,5.34-12.06,7.54,0,12.18,39.21,6.96,39.21,36.07,0,18.79-16.01,21.81-33.41,21.81Z"/>
    <path class="cls-5" d="M285.05,31.26v61.36h-17.75V31.26h-19.83v-13.69h57.42v13.69h-19.83Z"/>
  </g>
  <g>
    <path class="cls-4" d="M157.22,132.32c0-3.27-4.1-6.37-10.38-8.29,1.45-6.4.81-11.49-2.03-13.12-.65-.38-1.42-.56-2.25-.56v2.24c.46,0,.84.09,1.15.26,1.37.79,1.96,3.77,1.5,7.62-.11.95-.29,1.94-.51,2.96-1.97-.48-4.13-.86-6.39-1.1-1.36-1.86-2.77-3.55-4.19-5.03,3.28-3.05,6.36-4.72,8.45-4.72v-2.24c-2.77,0-6.39,1.97-10.05,5.39-3.66-3.4-7.29-5.35-10.05-5.35v2.24c2.08,0,5.17,1.66,8.45,4.69-1.41,1.48-2.82,3.16-4.16,5.02-2.27.24-4.43.61-6.4,1.11-.23-1.01-.4-1.98-.52-2.92-.47-3.84.11-6.83,1.47-7.63.3-.18.69-.26,1.16-.26v-2.24c-.85,0-1.61.18-2.27.56-2.83,1.63-3.46,6.71-2,13.09-6.26,1.93-10.34,5.02-10.34,8.28s4.1,6.37,10.38,8.29c-1.45,6.4-.81,11.49,2.03,13.12.65.38,1.42.56,2.26.56,2.77,0,6.39-1.97,10.05-5.39,3.66,3.4,7.29,5.35,10.05,5.35.85,0,1.61-.18,2.27-.56,2.83-1.63,3.46-6.71,2-13.09,6.24-1.92,10.32-5.02,10.32-8.28h0ZM144.11,125.61c-.37,1.3-.84,2.64-1.36,3.98-.41-.81-.85-1.61-1.32-2.42-.46-.81-.96-1.59-1.45-2.36,1.43.21,2.81.47,4.13.8h0ZM139.5,136.33c-.79,1.36-1.59,2.65-2.43,3.84-1.5.13-3.02.2-4.55.2s-3.04-.07-4.53-.19c-.84-1.2-1.65-2.48-2.44-3.82-.76-1.32-1.46-2.66-2.09-4.01.62-1.35,1.33-2.7,2.08-4.02.79-1.36,1.59-2.65,2.43-3.84,1.5-.13,3.02-.2,4.55-.2s3.04.07,4.53.19c.84,1.2,1.65,2.48,2.44,3.82.76,1.32,1.46,2.66,2.09,4.01-.63,1.35-1.33,2.7-2.08,4.02h0ZM142.75,135.02c.54,1.35,1.01,2.7,1.39,4.01-1.32.32-2.71.59-4.15.81.49-.78.99-1.57,1.45-2.39.46-.81.9-1.62,1.31-2.43h0ZM132.55,145.76c-.94-.97-1.87-2.04-2.8-3.22.91.04,1.83.07,2.77.07s1.88-.02,2.8-.07c-.91,1.18-1.84,2.25-2.77,3.22ZM125.06,139.83c-1.43-.21-2.81-.47-4.13-.8.37-1.3.84-2.64,1.36-3.98.41.81.85,1.61,1.32,2.42s.96,1.59,1.45,2.36ZM132.5,118.88c.94.97,1.87,2.04,2.8,3.22-.91-.04-1.83-.07-2.77-.07s-1.88.02-2.8.07c.91-1.18,1.84-2.25,2.77-3.22ZM125.05,124.81c-.49.78-.99,1.57-1.45,2.39-.46.81-.9,1.61-1.31,2.42-.54-1.35-1.01-2.7-1.39-4.01,1.32-.31,2.71-.58,4.15-.8h0ZM115.94,137.41c-3.56-1.52-5.87-3.51-5.87-5.09s2.3-3.58,5.87-5.09c.87-.37,1.81-.7,2.79-1.02.57,1.97,1.33,4.03,2.26,6.13-.93,2.09-1.67,4.14-2.23,6.1-1-.31-1.94-.65-2.82-1.03h0ZM121.36,151.8c-1.37-.79-1.96-3.77-1.5-7.62.11-.95.29-1.94.51-2.96,1.97.48,4.13.86,6.39,1.1,1.36,1.86,2.77,3.55,4.19,5.03-3.28,3.05-6.36,4.72-8.45,4.72-.45-.01-.84-.1-1.14-.27h0ZM145.23,144.13c.47,3.84-.11,6.83-1.47,7.63-.3.18-.69.26-1.16.26-2.08,0-5.17-1.66-8.45-4.69,1.41-1.48,2.82-3.16,4.16-5.02,2.27-.24,4.43-.61,6.4-1.11.23,1.02.41,1.99.52,2.93ZM149.1,137.41c-.87.37-1.81.7-2.79,1.02-.57-1.97-1.33-4.03-2.26-6.13.93-2.09,1.67-4.14,2.23-6.1,1,.31,1.94.65,2.83,1.03,3.56,1.52,5.87,3.51,5.87,5.09-.01,1.58-2.31,3.58-5.88,5.09h0Z"/>
    <circle class="cls-4" cx="132.52" cy="132.32" r="4.6"/>
  </g>
</svg>